<svg xmlns="http://www.w3.org/2000/svg" viewBox="0 0 248 248"><defs><style>.cls-1{fill:#008fd3;}.cls-2,.cls-3,.cls-4{fill:#f0ab00;}.cls-3{opacity:0.7;}.cls-4{opacity:0.4;}.cls-5{fill:#fff;}</style></defs><title>281979-pictogram-neg</title><g id="color_band" data-name="color band"><circle class="cls-1" cx="124" cy="124" r="48.81"/></g><g id="_100_band" data-name="100% band"><path class="cls-2" d="M124,75.19A48.81,48.81,0,1,0,172.81,124,48.81,48.81,0,0,0,124,75.19Zm0,84.22A35.41,35.41,0,1,1,159.41,124,35.41,35.41,0,0,1,124,159.41Z"/></g><g id="_70_band" data-name="70% band"><path class="cls-3" d="M124,88.59A35.41,35.41,0,1,0,159.41,124,35.41,35.41,0,0,0,124,88.59Zm0,57A21.61,21.61,0,1,1,145.61,124,21.61,21.61,0,0,1,124,145.61Z"/></g><g id="_40_band" data-name="40% band"><path class="cls-4" d="M124,102.39A21.61,21.61,0,1,0,145.61,124,21.61,21.61,0,0,0,124,102.39ZM124,132a8,8,0,1,1,8-8A8,8,0,0,1,124,132Z"/></g><g id="outlines"><path class="cls-5" d="M160.17,105.2l-1.89-3.53c1.13-.6,2.36-1.22,3.65-1.84l1.73,3.61C162.42,104,161.25,104.63,160.17,105.2Zm10.7-4.95c2.31-.94,4.79-1.9,7.39-2.84l-1.37-3.76c-2.65,1-5.18,1.94-7.54,2.9Zm14.88-5.36c3.23-1,6.43-1.86,9.51-2.57l-.9-3.9c-3.18.73-6.47,1.62-9.79,2.65ZM203,90.83c2.44-.37,3.79-.46,3.8-.46l-.25-4c-.06,0-1.52.1-4.15.5Zm-31.7,19.34c-2.86.32-5.57.71-8.06,1.16l.72,3.93c2.39-.44,5-.81,7.78-1.12ZM189.4,109c-3.12.07-6.51.23-10.07.45l.25,4c3.51-.22,6.84-.37,9.91-.45Zm11.8,4.23h0l.23-1.95.24-2c-.05,0-1.38-.16-4.17-.25l-.12,4c2.57.08,3.79.22,3.81.22h0Zm-64.46-41-3.88-1c-.69,2.72-1.31,5.37-1.85,7.86l3.91.83C135.44,77.5,136.05,74.91,136.73,72.24Zm5.09-17.1L138,53.84C137,57,135.93,60.24,135,63.46l3.84,1.12C139.75,61.42,140.76,58.24,141.82,55.14ZM146,44.06l-3.66-1.6c0,.06-.61,1.39-1.54,3.79l3.73,1.45C145.43,45.38,146,44.08,146,44.06Zm12.5,87.87a35.16,35.16,0,0,1-1.11,3.86c1,.36,2.26.87,3.83,1.51l1.52-3.7C161,132.86,159.5,132.3,158.51,131.93ZM177.2,145l2-3.49c-1.64-.92-3.39-1.86-5.2-2.79-1.29-.66-2.57-1.29-3.8-1.87l-1.71,3.61c1.2.57,2.44,1.17,3.69,1.82C173.9,143.22,175.61,144.13,177.2,145Zm6.7,4.08c2.08,1.39,3.05,2.21,3.06,2.22l2.58-3.06s-1.12-.94-3.41-2.48Zm-26.38,30.77-3.66,1.62c1,2.36,2.1,4.82,3.14,7.32l3.69-1.54C159.64,184.75,158.58,182.26,157.52,179.87Zm-12-23.37c-.92-1.44-1.61-2.41-2-3a35.4,35.4,0,0,1-3.48,2c.18.23.93,1.23,2.11,3.08Zm4.12,7-3.51,1.91c1.48,2.72,3,5.69,4.46,8.82l3.62-1.71C152.66,169.34,151.13,166.31,149.62,163.52Zm14.1,31.2L160,196.19q.76,1.93,1.44,3.71l3.74-1.43Q164.48,196.68,163.71,194.73Zm.48,12.65c1.4,3.91,2.22,6.41,2.37,6.87l3.8-1.24c-.15-.47-1-3-2.41-7ZM78.41,181l3.45,2c1.32-2.26,2.71-4.53,4.14-6.75l-3.36-2.17C81.19,176.41,79.76,178.73,78.41,181Zm-5.76,10.69,3.59,1.76c.52-1.06,1.12-2.24,1.79-3.52l-3.54-1.86C73.8,189.44,73.19,190.65,72.65,191.73Zm14.5-24.29,3.28,2.29c2-2.82,3.94-5.51,5.86-8l-3.17-2.44C91.17,161.84,89.16,164.58,87.16,167.45ZM103.65,153a35.46,35.46,0,0,1-3.15-2.49c-.46.49-1.22,1.33-2.27,2.54l3,2.61C102.48,154.21,103.29,153.34,103.65,153Zm-50.88-45.6-.18,4c2.67.12,5.33.29,7.91.5l.33-4C58.19,107.66,55.48,107.49,52.77,107.36Zm-8.11,3.77,0-4-2.66,0H40.67l0,4H42Zm24.19-2.47-.44,4c3.46.39,6.77.82,9.83,1.29l.61-4C75.73,109.49,72.36,109,68.84,108.66Zm18,2.74L86,115.32c1.86.39,3,.69,3.48.81a35.09,35.09,0,0,1,1.1-3.84C90.07,112.15,88.83,111.83,86.82,111.4Zm10-24.9,3.21-2.38c-1.16-1.56-2.25-3-3.25-4.27q-.85-1.09-1.71-2.14L92,80.26q.83,1,1.66,2.06C94.65,83.57,95.72,85,96.86,86.51ZM101.51,93l1.67,2.41a35.4,35.4,0,0,1,3.36-2.17c-.42-.61-1-1.48-1.76-2.54ZM76.42,59.12c-2-1.62-3.18-2.51-3.23-2.55l-2.37,3.22s1.18.87,3.06,2.42Zm10.4,15.23,2.92-2.74c-2.27-2.42-4.69-4.82-7.2-7.15L79.82,67.4C82.26,69.66,84.61,72,86.82,74.35ZM56.69,85.28,55.26,89c6.72,2.56,12.92,5.09,18.45,7.5l1.6-3.66C69.73,90.42,63.46,87.87,56.69,85.28ZM39.37,78.93h0S39.36,78.92,39.37,78.93Zm2.78,5.29,1.33-3.77c-3.74-1.31-4.09-1.49-4.11-1.52L38,82.79C38.1,82.81,39.62,83.32,42.15,84.22Zm24.29,51.84c-17.58,6.26-22,9.76-22.46,10.13l2.58,3.05s4.28-3.39,21.21-9.42Zm31-8.85c-4.13.83-10.88,2.38-19.55,5l1.17,3.82c8.52-2.61,15.13-4.13,19.17-4.95ZM48.2,122.11c7.65-1,14.28-1.68,19.71-1.89H68l-.16-2v-2h-.15c-5.55.22-12.3.87-20,1.93Zm-14.46-1.8c-3.66.63-6.07,1.1-6.34,1.15l.66,3.92.39,0c.26-.05,2.35-.47,6-1.09Zm46.06-.12c10.41.3,19.68,1.34,22.7,1.7a21.41,21.41,0,0,1,.77-3.94c-2.77-.34-12.46-1.45-23.35-1.76Zm1.15,39.91-2.75-2.91A160.86,160.86,0,0,0,64.39,172l3.09,2.54A156.77,156.77,0,0,1,80.95,160.09Zm8.94-7.82c10.35-8.64,16-12.66,17.92-14a21.74,21.74,0,0,1-2.36-3.24c-2.15,1.48-7.78,5.53-18.12,14.16ZM127,145.38a21.63,21.63,0,0,1-3,.23c-.35,0-.68,0-1-.05.24,3,1,13.1,1.54,23l4-.22C128,158.54,127.22,148.59,127,145.38Zm2,35-4,.1,0,1.56c.16,8.72.26,14.56.34,18.42l4-.08c-.07-3.85-.18-9.69-.34-18.41Zm13.6-45.47c2.72,1.93,9.09,6.63,17.22,13.7l2.62-3a229.23,229.23,0,0,0-18.13-14.37A21.6,21.6,0,0,1,142.61,134.94Zm28.76,18.9-2.8,2.86c5.66,5.55,10.54,10.92,13.62,14.45l3-2.63C182.07,164.93,177.13,159.48,171.37,153.84ZM144.75,118a21.43,21.43,0,0,1,.76,4l2.51,0c4,0,10.77.13,19.88.77l.28-4c-9.22-.64-16.05-.78-20.16-.78C146.5,118,145.41,118,144.75,118Zm55.4,4.34c-5.73-1-12.44-1.82-20-2.57l-.4,4c7.43.74,14.06,1.59,19.7,2.54Zm-59.9-12.56a21.64,21.64,0,0,1,2.36,3.27,133.57,133.57,0,0,1,18.5-14.27l-2.18-3.35A137.93,137.93,0,0,0,140.25,109.79ZM171.71,88l-2.33,1.23,1.9,3.52,2.26-1.2a108.32,108.32,0,0,1,15.72-6.65L188,81.09A112.32,112.32,0,0,0,171.71,88Zm35.65-7.07h-.1v-4a47.75,47.75,0,0,0-5.38.67l.67,3.94A47.5,47.5,0,0,1,207.36,80.91Zm-61,5a131.32,131.32,0,0,0-14.09,18.16,21.48,21.48,0,0,1,3.54,1.89A129.91,129.91,0,0,1,149.35,88.6Zm42.33-30.83-2.3-3.27c-.08.06-2,1.39-5.05,3.69l2.39,3.21C186.8,56.43,188.71,55.08,188.73,55.07Zm-31,25.14c4.42-4.11,9.48-8.48,15-13l-2.51-3.11c-5.64,4.55-10.78,9-15.26,13.16ZM126.26,50.08c0,5.75-.12,11.63-.36,17.48l4,.16c.24-5.91.36-11.84.36-17.65q0-1.25,0-2.44l-4,0Q126.26,48.84,126.26,50.08Zm3.32-23h0S129.59,27,129.58,27.08Zm.33,6.48c-.1-2.14-.19-3.79-.27-4.92a13.83,13.83,0,0,1-.06-1.56l-4.05.17s.2,2.34.38,6.49Zm-12.13,69.75c-.91-2.84-3.3-10.06-7.53-21.38l-3.75,1.4c4.37,11.71,6.75,19,7.56,21.5A21.4,21.4,0,0,1,117.77,103.31ZM106,70.69c-2.46-6.21-5.27-12.39-8.36-18.38L94,54.13c3,5.88,5.79,11.94,8.2,18ZM90.65,40c-2.1-3.42-3.44-5.3-3.49-5.38L83.9,36.91s1.32,1.86,3.34,5.15ZM118,129.22a8.2,8.2,0,0,1-2-5.22c0-.24,0-.47,0-.71s.06-.51.11-.77c0-.09,0-.18,0-.26a7.89,7.89,0,0,1,1.09-2.6,8,8,0,0,1,2.88-2.68,358.05,358.05,0,0,0-35-30.54C60.64,67.45,40.81,59.95,40,59.64l-1.4,3.75c.2.07,20.13,7.63,44.19,26.23a357.54,357.54,0,0,1,33.88,29.48c-2.43-1.36-6.29-3.4-11.5-5.73l2-3A230.35,230.35,0,0,0,86.29,98l-1.83,3.55c8.09,4.18,15.31,8.72,18.59,10.86a202.49,202.49,0,0,0-28.1-9.7C47.24,95.36,28,95.58,27.22,95.59l.06,4c.19,0,19.46-.22,46.63,7a184.62,184.62,0,0,1,39.91,15.5c-9.13-.28-31.66-.5-49.6,3.29-22.57,4.77-32.21,9.52-32.6,9.72l1.79,3.58c.09,0,9.67-4.73,31.65-9.38,17.91-3.79,41.24-3.44,49.53-3.17a244.57,244.57,0,0,0-40.07,18.5,199.47,199.47,0,0,0-40.08,30.5l2.89,2.77a195.27,195.27,0,0,1,39.19-29.8A237.27,237.27,0,0,1,118,129.22Zm1.61,1.42c-1.83,4.7-6.25,17.41-12,43-6.08,27.19-7.71,43-7.73,43.11l4,.4c0-.15,1.63-15.68,7.65-42.64,5.69-25.47,10.14-38.15,11.84-42.54A8,8,0,0,1,119.57,130.65Zm8.21.39a8,8,0,0,1-3.79,1h-.15c2,4.93,7.81,19.16,12.52,34.37,8.11,26.16,10.66,42.57,10.69,42.74l4-.6c0-.17-2.62-16.84-10.82-43.32C135.61,150.38,130.05,136.51,127.79,131Zm3-2.81a8,8,0,0,1-2.91,2.76c3.2,3,10.61,10.47,22.43,24.91a256,256,0,0,1,26.9,40.65l3.57-1.81a260.39,260.39,0,0,0-27.37-41.38C141.58,138.94,134.18,131.45,130.77,128.23Zm43-25.78c-23.73,6.58-38.14,13.92-43.37,16.85a7.93,7.93,0,0,1,1.46,3.64A7.72,7.72,0,0,1,132,124a8,8,0,0,1-.49,2.73c3.73-.07,15.54.1,36.24,3.89A127.62,127.62,0,0,1,212,148.12l2.27-3.3a129.25,129.25,0,0,0-45.78-18.14c-19.43-3.56-31.06-4-35.91-4,5.15-2.85,19.41-10.06,42.33-16.41,30.65-8.5,49.78-8,50-7.95l.14-4C224.2,94.33,205.12,93.77,173.81,102.45ZM158.4,88.24a171.71,171.71,0,0,0-31.06,28.51,8,8,0,0,1,3.1,2.54c3.16-3.73,15-17.2,30.25-27.76C178.33,79.26,189.13,76,189.23,75.95l-1.13-3.84C187.65,72.24,176.66,75.56,158.4,88.24Zm-37.93,28.61A8,8,0,0,1,124,116l.42,0h0a7.94,7.94,0,0,1,2.7.61,163.34,163.34,0,0,1,10.79-29.31c14.62-31.28,29.42-46.94,29.56-47.1l-2.89-2.77c-.62.65-15.38,16.23-30.3,48.17-2.89,6.18-5.09,11.62-6.77,16.23.37-3.14,1.09-10.23,1.78-22.13l-4-.23c-.76,13.21-1.59,20.57-1.88,22.91l.57,0a21.28,21.28,0,0,1,3.23.27c-1.38,3.83-2.37,7-3.08,9.54-.61-8.23-2-24.51-4.57-43.26-3.89-28.52-8.52-42.92-8.71-43.52l-3.8,1.24c0,.14,4.72,14.71,8.56,42.83C118.77,92.51,120.14,111.79,120.47,116.84Z"/></g></svg>