<svg xmlns="http://www.w3.org/2000/svg" viewBox="0 0 248 248"><defs><style>.cls-1{fill:#e35500;}.cls-2,.cls-3,.cls-4{fill:#f0ab00;}.cls-3{opacity:0.7;}.cls-4{opacity:0.4;}.cls-5{fill:#fff;}</style></defs><title>283063-pictogram-neg</title><g id="color_band" data-name="color band"><path class="cls-1" d="M160,55H38.58a5.42,5.42,0,0,0-5.41,5.41v70.7a5.42,5.42,0,0,0,5.41,5.41h75.93q0-8.46,0-16.92a4.19,4.19,0,0,1,1.36-3.34l.25-.19a4.24,4.24,0,0,1,3.23-.65l4.27.65.76.12,10.94,1.68q9.81,1.5,19.61,3a29.77,29.77,0,0,1,10.46,3.4V60.38A5.42,5.42,0,0,0,160,55ZM120.26,95.78a4.6,4.6,0,0,1-2.61,4.14l-32,15.57A4.63,4.63,0,0,1,79,111.3l.07-15.73.07-15.69a4.63,4.63,0,0,1,6.7-4.13l31.85,15.85a4.59,4.59,0,0,1,2.55,4C120.24,95.64,120.26,95.71,120.26,95.78Z"/></g><g id="_100_band" data-name="100% band"><path class="cls-2" d="M165.39,60.38A5.42,5.42,0,0,0,160,55H38.58a5.42,5.42,0,0,0-5.41,5.41V75.1H165.39Z"/></g><g id="_70_band" data-name="70% band"><path class="cls-3" d="M165.39,75.1H33.17V95.57h45.9l.07-15.69a4.63,4.63,0,0,1,6.7-4.13l31.85,15.85a4.59,4.59,0,0,1,2.55,4h45.15Z"/></g><g id="_40_band" data-name="40% band"><path class="cls-4" d="M120.24,95.57c0,.07,0,.14,0,.21a4.6,4.6,0,0,1-2.61,4.14l-32,15.57A4.63,4.63,0,0,1,79,111.3l.07-15.73H33.17V116h82.94a4.24,4.24,0,0,1,3.23-.65l4.27.65h41.77V95.57Z"/></g><g id="outlines_--_combound_path" data-name="outlines -- combound path"><path class="cls-5" d="M217.17,119.57a4.19,4.19,0,0,0-1.36-3.34,4.15,4.15,0,0,0-3.47-.85l-5,.77-11,1.69q-9.77,1.5-19.54,3a29.29,29.29,0,0,0-10.91,3.66l-.45-.25a29.77,29.77,0,0,0-10.46-3.4q-9.81-1.52-19.61-3l-10.94-1.68-.76-.12-4.27-.65a4.24,4.24,0,0,0-3.23.65l-.25.19a4.19,4.19,0,0,0-1.36,3.34q0,8.46,0,16.92,0,22.55,0,45.1a4,4,0,0,0,3.71,4.31l12.9,2.07,28.25,4.53c2.54.41,3.85,1.83,4.13,4.46a2.27,2.27,0,0,0,2.34,2h0a2.27,2.27,0,0,0,2.34-2c.27-2.63,1.58-4.05,4.12-4.46l28.37-4.55,12.78-2a4,4,0,0,0,3.71-4.31Q217.17,150.58,217.17,119.57Zm-4,62.31-.33.07L200,184l-28.37,4.55a9.35,9.35,0,0,0-4,1.56v-44.2a2,2,0,0,0-4,0v44a9.45,9.45,0,0,0-3.71-1.39L131.75,184,118.85,182l-.33-.07c0-.07,0-.17,0-.29q0-22.55,0-45.1,0-8.46,0-16.92a1.93,1.93,0,0,1,0-.25l.23,0,5,.77,11,1.68,19.6,3a25.21,25.21,0,0,1,9.67,3.26,4,4,0,0,0,1.4.58,3.18,3.18,0,0,0,2.3-.58,25.22,25.22,0,0,1,9.67-3.26l19.53-3,11-1.7,5-.77.23,0a1.84,1.84,0,0,1,0,.25q0,31,0,62C213.17,181.72,213.16,181.81,213.16,181.88Zm-37-22.46a2,2,0,0,1,1.64-2.3l25-4.18a2,2,0,1,1,.66,3.95l-25,4.18-.33,0A2,2,0,0,1,176.14,159.42Zm0-23.74a2,2,0,0,1,1.64-2.3l25-4.18a2,2,0,1,1,.66,3.95l-25,4.18-.33,0A2,2,0,0,1,176.19,135.69Zm40.33,55.88a2,2,0,0,1-1.67,2.28L178,199.57a3.92,3.92,0,0,0-3.36,3,5.7,5.7,0,0,1-5.51,4.66h-6.81a5.71,5.71,0,0,1-5.51-4.68,3.92,3.92,0,0,0-3.27-3h-.1l-37.22-6.09a2,2,0,1,1,.65-3.95l37.19,6.09a7.92,7.92,0,0,1,6.67,6.18,1.71,1.71,0,0,0,1.59,1.48h6.81a1.71,1.71,0,0,0,1.59-1.46,8,8,0,0,1,6.75-6.21l36.77-5.71A2,2,0,0,1,216.52,191.57Zm-11.16-49a2,2,0,0,1-1.64,2.3l-25,4.18-.33,0a2,2,0,0,1-.33-4l25-4.18A2,2,0,0,1,205.36,142.53ZM94,170.35H39.16a8.5,8.5,0,0,0-8.49,8.49v.43a8.5,8.5,0,0,0,8.49,8.49H94a8.5,8.5,0,0,0,8.49-8.49v-.43A8.5,8.5,0,0,0,94,170.35Zm4.49,8.92A4.49,4.49,0,0,1,94,183.75H39.16a4.49,4.49,0,0,1-4.49-4.49v-.43a4.49,4.49,0,0,1,4.49-4.49H94a4.49,4.49,0,0,1,4.49,4.49Zm81.65-105h24.28a8.5,8.5,0,0,0,8.49-8.49v-.58a8.5,8.5,0,0,0-8.49-8.49H180.16a8.5,8.5,0,0,0-8.49,8.49v.58A8.5,8.5,0,0,0,180.16,74.31Zm-4.49-9.07a4.49,4.49,0,0,1,4.49-4.49h24.28a4.49,4.49,0,0,1,4.49,4.49v.58a4.49,4.49,0,0,1-4.49,4.49H180.16a4.49,4.49,0,0,1-4.49-4.49Zm4.49,33.07h24.28a8.5,8.5,0,0,0,8.49-8.49v-.58a8.5,8.5,0,0,0-8.49-8.49H180.16a8.5,8.5,0,0,0-8.49,8.49v.58A8.5,8.5,0,0,0,180.16,98.31Zm-4.49-9.07a4.49,4.49,0,0,1,4.49-4.49h24.28a4.49,4.49,0,0,1,4.49,4.49v.58a4.49,4.49,0,0,1-4.49,4.49H180.16a4.49,4.49,0,0,1-4.49-4.49ZM94,145.5H39.16A8.5,8.5,0,0,0,30.67,154v1.18a8.5,8.5,0,0,0,8.49,8.49H94a8.5,8.5,0,0,0,8.49-8.49V154A8.5,8.5,0,0,0,94,145.5Zm4.49,9.67A4.49,4.49,0,0,1,94,159.65H39.16a4.49,4.49,0,0,1-4.49-4.49V154a4.49,4.49,0,0,1,4.49-4.49H94A4.49,4.49,0,0,1,98.51,154Zm19.18-63.56L85.84,75.75a4.63,4.63,0,0,0-6.7,4.13l-.07,15.69L79,111.3a4.63,4.63,0,0,0,6.66,4.19l32-15.57a4.6,4.6,0,0,0,2.61-4.14c0-.07,0-.14,0-.21A4.59,4.59,0,0,0,117.69,91.61Zm-1.79,4.71-32,15.57a.63.63,0,0,1-.91-.57l.07-15.75.07-15.67a.61.61,0,0,1,.3-.53.64.64,0,0,1,.33-.1.62.62,0,0,1,.28.07l31.85,15.85a.58.58,0,0,1,.32.38.73.73,0,0,1,0,.19A.61.61,0,0,1,115.9,96.32Z"/></g></svg>