<svg xmlns="http://www.w3.org/2000/svg" viewBox="0 0 248 248"><defs><style>.cls-1{fill:#008fd3;}.cls-2,.cls-3,.cls-4{fill:#f0ab00;}.cls-3{opacity:0.7;}.cls-4{opacity:0.4;}.cls-5{fill:#fff;}</style></defs><title>283637-pictogram-neg</title><g id="color_band" data-name="color band"><path class="cls-1" d="M106.09,109.37a9.18,9.18,0,1,1-9.19-9.18h0A9.18,9.18,0,0,1,106.09,109.37Zm44.85-9.18h0a9.18,9.18,0,1,0,9.19,9.18A9.18,9.18,0,0,0,150.92,100.19Zm12.27,38v-3a12.28,12.28,0,0,0-24.56,0v3h0v3.15h-5a5,5,0,0,0,0,10h5v2.08h0v15.1a45.85,45.85,0,0,0,24.56-20V138.15Zm-54,15.23V151.3h12.62a5,5,0,0,0,0-10H109.19v-3.15h0v-3a12.28,12.28,0,0,0-24.56,0v3h0v10.32a45.85,45.85,0,0,0,24.56,20v-15.1Z"/></g><g id="_100_band" data-name="100% band"><path class="cls-2" d="M106.09,109.37a9.18,9.18,0,1,1-9.19-9.18h0A9.18,9.18,0,0,1,106.09,109.37Zm44.85-9.18h0a9.18,9.18,0,1,0,9.19,9.18A9.18,9.18,0,0,0,150.92,100.19Z"/></g><g id="_70_band" data-name="70% band"><path class="cls-3" d="M96.9,122.92a12.28,12.28,0,0,1,12.28,12.28v3H84.62v-3A12.28,12.28,0,0,1,96.9,122.92Zm41.74,12.28v3h24.56v-3a12.28,12.28,0,0,0-24.56,0Z"/></g><g id="_40_band" data-name="40% band"><path class="cls-4" d="M163.21,148.48a45.87,45.87,0,0,1-3.36,4.9H138.64V151.3h-5a5,5,0,0,1,0-10h5v-3.15h24.56Zm-54,2.82h12.62a5,5,0,0,0,0-10H109.19v-3.15H84.62v10.32A45.77,45.77,0,0,0,88,153.39h21.2Z"/></g><g id="outlines_--_combound_path" data-name="outlines -- combound path"><path class="cls-5" d="M220.76,125.31c0-1.13-.1-6.1-6.23-8.89a12.71,12.71,0,0,0-5.44-1.1,43.78,43.78,0,0,0-6.59.72A76.47,76.47,0,0,1,190,117.19H188.9a65.17,65.17,0,0,0-13.31-32.05l.77-.77a76.47,76.47,0,0,1,9.67-8c3.81-2.78,6.81-5,8.24-8.78,2.46-6.55-1.37-10.24-1.88-10.69a8.69,8.69,0,0,0-6.49-2.7,12,12,0,0,0-4.21.81c-3.81,1.43-6,4.44-8.78,8.24a76.41,76.41,0,0,1-8,9.67l-.77.77A65.17,65.17,0,0,0,132,60.33V59.27a76.46,76.46,0,0,1,1.15-12.53c.73-4.66,1.3-8.33-.38-12-2.63-5.79-7.24-6.24-8.59-6.24h-.61c-1.35,0-6,.45-8.59,6.24-1.68,3.71-1.11,7.38-.38,12a76.48,76.48,0,0,1,1.15,12.53v1.06A65.16,65.16,0,0,0,83.73,73.64L83,72.87a76.53,76.53,0,0,1-8-9.67c-2.78-3.81-5-6.81-8.78-8.24a12,12,0,0,0-4.21-.81,8.69,8.69,0,0,0-6.5,2.7c-.69.63-4.27,4.3-1.88,10.69,1.43,3.81,4.44,6,8.24,8.78a76.55,76.55,0,0,1,9.67,8l.77.77a65.17,65.17,0,0,0-13.31,32.06H57.87A76.45,76.45,0,0,1,45.35,116a43.92,43.92,0,0,0-6.6-.72,12.71,12.71,0,0,0-5.44,1.1c-6.14,2.79-6.28,7.77-6.23,8.89,0,.9,0,6.06,6.23,8.9a12.71,12.71,0,0,0,5.44,1.1,43.89,43.89,0,0,0,6.6-.71,76.35,76.35,0,0,1,12.53-1.15h1.06A65.16,65.16,0,0,0,72.24,165.5l-.77.77a76.42,76.42,0,0,1-9.67,8c-3.81,2.78-6.81,5-8.24,8.78-2.36,6.31,1,9.92,1.88,10.69a8.77,8.77,0,0,0,6.49,2.7h0a12,12,0,0,0,4.21-.81c3.81-1.43,6-4.43,8.78-8.24a76.48,76.48,0,0,1,8-9.67l.77-.77a65.16,65.16,0,0,0,32.05,13.31v1.06a76.47,76.47,0,0,1-1.15,12.53c-.73,4.66-1.3,8.33.38,12,2.63,5.79,7.24,6.24,8.59,6.24h.61c1.35,0,6-.45,8.59-6.24,1.69-3.71,1.11-7.38.38-12A76.33,76.33,0,0,1,132,191.36V190.3A65.17,65.17,0,0,0,164.1,177l.77.77a76.52,76.52,0,0,1,8,9.67c2.78,3.81,5,6.81,8.78,8.24a12,12,0,0,0,4.21.81,8.73,8.73,0,0,0,6.48-2.69c.81-.73,4.27-4.36,1.89-10.71-1.43-3.81-4.44-6-8.24-8.78a76.47,76.47,0,0,1-9.67-8l-.77-.77a65.17,65.17,0,0,0,13.31-32.06H190a76.35,76.35,0,0,1,12.53,1.15,43.76,43.76,0,0,0,6.59.71,12.72,12.72,0,0,0,5.44-1.1C220.85,131.33,220.8,126.07,220.76,125.31ZM167.7,75.69a79.93,79.93,0,0,0,8.45-10.14c2.57-3.52,4.26-5.84,7-6.85a8,8,0,0,1,2.8-.56,4.76,4.76,0,0,1,3.51,1.36l.3.3c.25.21,2.37,2.21.82,6.33-1,2.69-3.33,4.39-6.85,7a79.9,79.9,0,0,0-10.14,8.45L173,82a66.05,66.05,0,0,0-5.84-5.84ZM118.59,46.12c-.67-4.3-1.12-7.15.07-9.77,1.64-3.61,4.2-3.89,4.95-3.89h.61c.75,0,3.31.28,5,3.89,1.19,2.62.75,5.46.07,9.77A79.87,79.87,0,0,0,128,59.27V60c-1.37-.09-2.74-.14-4.13-.14s-2.76.06-4.13.14v-.68A79.89,79.89,0,0,0,118.59,46.12ZM74.3,81.53a79.9,79.9,0,0,0-10.14-8.45c-3.52-2.57-5.84-4.26-6.85-7-1.51-4,.49-6,.85-6.35l.25-.25a4.75,4.75,0,0,1,3.53-1.39,8.05,8.05,0,0,1,2.8.56c2.69,1,4.39,3.34,7,6.86a79.86,79.86,0,0,0,8.45,10.14l.5.5A66.2,66.2,0,0,0,74.8,82ZM57.87,129.44a79.87,79.87,0,0,0-13.15,1.2,41.3,41.3,0,0,1-6,.67,8.86,8.86,0,0,1-3.79-.74c-4-1.82-3.91-4.73-3.89-5.05v-.42s-.3-3.12,3.89-5a8.87,8.87,0,0,1,3.79-.74,41.31,41.31,0,0,1,6,.67,79.9,79.9,0,0,0,13.15,1.2h.68c-.09,1.37-.14,2.74-.14,4.13s.06,2.76.14,4.13Zm22.26,45.49a79.93,79.93,0,0,0-8.45,10.14c-2.57,3.52-4.26,5.84-7,6.85a8,8,0,0,1-2.8.56h0a4.79,4.79,0,0,1-3.51-1.36l-.29-.3c-.25-.21-2.38-2.2-.83-6.33,1-2.69,3.33-4.39,6.85-7a79.94,79.94,0,0,0,10.14-8.45l.5-.5a66,66,0,0,0,5.84,5.84Zm49.1,29.57c.67,4.3,1.12,7.15-.07,9.77-1.64,3.61-4.21,3.89-5,3.89h-.61c-.75,0-3.3-.28-4.94-3.89-1.19-2.62-.75-5.46-.07-9.77a79.89,79.89,0,0,0,1.2-13.15v-.68c1.37.09,2.74.14,4.13.14s2.76-.06,4.13-.14v.68A79.87,79.87,0,0,0,129.24,204.5Zm44.29-35.41a79.82,79.82,0,0,0,10.14,8.45c3.52,2.57,5.84,4.26,6.85,7,1.55,4.13-.58,6.12-.76,6.28l-.35.33a4.76,4.76,0,0,1-3.52,1.38,8,8,0,0,1-2.8-.56c-2.69-1-4.39-3.33-7-6.85a80,80,0,0,0-8.45-10.14l-.51-.51a66.12,66.12,0,0,0,5.84-5.84Zm-49.62,17.72a61.51,61.51,0,1,1,61.51-61.51A61.58,61.58,0,0,1,123.92,186.82Zm92.85-61.31c0,.33.11,3.24-3.89,5.05a8.86,8.86,0,0,1-3.79.74,41.15,41.15,0,0,1-6-.67,79.87,79.87,0,0,0-13.15-1.2h-.68c.09-1.37.14-2.74.14-4.13s-.06-2.76-.14-4.13H190a79.89,79.89,0,0,0,13.15-1.2,41.3,41.3,0,0,1,6-.67,8.85,8.85,0,0,1,3.79.74c4,1.83,3.92,4.74,3.9,5v.42ZM123.92,75.68a49.63,49.63,0,1,0,49.63,49.63A49.69,49.69,0,0,0,123.92,75.68Zm0,95.26a45.63,45.63,0,1,1,45.63-45.63A45.68,45.68,0,0,1,123.92,170.94Z"/></g></svg>