<svg xmlns="http://www.w3.org/2000/svg" viewBox="0 0 248 248"><defs><style>.cls-1{fill:#fff;}.cls-2{fill:#e35500;}.cls-3,.cls-4,.cls-5{fill:#f0ab00;}.cls-4{opacity:0.7;}.cls-5{opacity:0.4;}</style></defs><title>285362-pictogram-neg</title><g id="outlines_--_combound_path" data-name="outlines -- combound path"><path class="cls-1" d="M179.39,58.78h-16v-32h16Zm-12-4h8v-24h-8Zm-80,4h-16v-32h16Zm-12-4h8v-24h-8Zm142,28h-4V218.9h-176V82.78h-4V222.9h184V82.78ZM53.88,99.29v43.85h99.61v15.91H53.88V202.9H197.34V99.29ZM73.8,139.13H57.88V123.21H73.8Zm0-19.92H57.88V103.29H73.8Zm19.93,19.92H77.81V123.21H93.73Zm0-19.92H77.81V103.29H93.73Zm19.92,19.92H97.73V123.21h15.92Zm0-19.92H97.73V103.29h15.92Zm19.92,19.92H117.65V123.21h15.92Zm0-19.92H117.65V103.29h15.92ZM73.8,198.9H57.88V183H73.8Zm0-19.92H57.88V163.06H73.8ZM93.73,198.9H77.81V183H93.73Zm0-19.92H77.81V163.06H93.73Zm19.92,19.92H97.73V183h15.92Zm0-19.92H97.73V163.06h15.92Zm19.92,19.92H117.65V183h15.92Zm0-19.92H117.65V163.06h15.92Zm19.92,19.92H137.57V183h15.92Zm0-19.92H137.57V163.06h15.92Zm0-39.85H137.57V123.21h15.92Zm0-19.92H137.57V103.29h15.92Zm19.93,79.69H157.5V183h15.92Zm0-19.92H157.5V163.06h15.92Zm0-19.93H157.5V143.14h15.92Zm0-19.92H157.5V123.21h15.92Zm0-19.92H157.5V103.29h15.92Zm19.92,79.69H177.42V183h15.92Zm0-19.92H177.42V163.06h15.92Zm0-19.93H177.42V143.14h15.92Zm0-19.92H177.42V123.21h15.92Zm0-19.92H177.42V103.29h15.92Z"/></g><g id="color_band" data-name="color band"><path class="cls-2" d="M153.49,143.14v15.91H53.89V143.14h99.6ZM37.38,82.78h180V46.28h-38v12.5h-16V46.28h-76v12.5h-16V46.28h-38v36.5Z"/></g><g id="_100_band" data-name="100% band"><path class="cls-3" d="M217.39,46.28v36.5h-46v-24h8V46.28Zm-88.8,96.86v15.92h24.9V143.14Z"/></g><g id="_70_band" data-name="70% band"><path class="cls-4" d="M128.59,143.14v15.92h-24.9V143.14Zm34.8-84.36V46.28h-38v36.5h46v-24Z"/></g><g id="_40_band" data-name="40% band"><path class="cls-5" d="M125.39,46.28v36.5h-46v-24h8V46.28Zm-46.6,96.86v15.92h24.9V143.14Z"/></g></svg>